<?xml version="1.0" encoding="UTF-8" standalone="no"?>
<svg
   xmlns:dc="http://purl.org/dc/elements/1.1/"
   xmlns:cc="http://creativecommons.org/ns#"
   xmlns:rdf="http://www.w3.org/1999/02/22-rdf-syntax-ns#"
   xmlns:svg="http://www.w3.org/2000/svg"
   xmlns="http://www.w3.org/2000/svg"
   width="2360.429"
   height="702"
   viewBox="0 0 624.53014 185.7375"
   version="1.1"
   id="svg8">
  <defs
     id="defs2" />
  <metadata
     id="metadata5">
    <rdf:RDF>
      <cc:Work
         rdf:about="">
        <dc:format>image/svg+xml</dc:format>
        <dc:type
           rdf:resource="http://purl.org/dc/dcmitype/StillImage" />
        <dc:title></dc:title>
      </cc:Work>
    </rdf:RDF>
  </metadata>
  <g
     id="layer1"
     transform="translate(0,-111.26248)">
    <g
       id="Color"
       transform="matrix(1.4469401,0,0,1.4568315,27.78125,110.89401)">
      <path
         id="path4485"
         d="M 124,113 H 4 c -2.2,0 -4,-1.8 -4,-4 V 19 c 0,-2.2 1.8,-4 4,-4 h 120 c 2.2,0 4,1.8 4,4 v 90 c 0,2.2 -1.8,4 -4,4 z"
         style="fill:#ecf0f0" />
      <rect
         id="rect4487"
         height="75.199997"
         width="114"
         y="29.799999"
         x="7"
         style="fill:#dfdfdf" />
      <circle
         id="circle4489"
         r="2"
         cy="22"
         cx="104"
         style="fill:#17d86b" />
      <circle
         id="circle4491"
         r="2"
         cy="22"
         cx="110"
         style="fill:#ff8418" />
      <circle
         id="circle4493"
         r="2"
         cy="22"
         cx="116"
         style="fill:#f44739" />
      <rect
         id="rect4495"
         height="4"
         width="58"
         y="36"
         x="17"
         style="fill:#2281bb" />
      <rect
         id="rect4497"
         height="4"
         width="70"
         y="46"
         x="30"
         style="fill:#d35103" />
      <rect
         id="rect4499"
         height="4"
         width="50"
         y="56"
         x="43"
         style="fill:#c7342a" />
      <rect
         id="rect4501"
         height="4"
         width="38"
         y="66"
         x="57"
         style="fill:#2281bb" />
      <rect
         id="rect4503"
         height="4"
         width="24"
         y="76"
         x="43"
         style="fill:#c7342a" />
      <rect
         id="rect4505"
         height="4"
         width="10"
         y="86"
         x="30"
         style="fill:#d35103" />
      <rect
         id="rect4507"
         height="4"
         width="58"
         y="96"
         x="17"
         style="fill:#2281bb" />
    </g>
  </g>
  <g
     aria-label="NastoletniProgramiści"
     style="font-style:normal;font-weight:normal;font-size:10.58333302px;line-height:1.25;font-family:sans-serif;letter-spacing:0px;word-spacing:0px;fill:#34495e;fill-opacity:1;stroke:none;stroke-width:0.26458332"
     id="text4506">
    <path
       id="path4540"
       style="font-style:normal;font-variant:normal;font-weight:bold;font-stretch:normal;font-size:67.02777863px;line-height:1;font-family:'Inter UI';-inkscape-font-specification:'Inter UI, Bold';font-variant-ligatures:normal;font-variant-caps:normal;font-variant-numeric:normal;font-feature-settings:normal;text-align:start;writing-mode:lr-tb;text-anchor:start;fill:#34495e;fill-opacity:1;stroke-width:0.26458332"
       d="m 591.58365,104.43675 c 2.97531,0 5.16514,-2.18983 5.16514,-4.855707 0,-2.570668 -2.18983,-4.855706 -5.16514,-4.855706 -2.97531,0 -5.23655,2.285038 -5.23655,4.855706 0,2.665877 2.26124,4.855707 5.23655,4.855707 z m 4.52247,3.14193 h -9.09255 v 36.5606 h 9.09255 z m -15.07887,11.75842 c -1.02351,-7.04553 -6.61709,-12.23447 -15.30499,-12.23447 -10.59211,0 -16.80455,7.92622 -16.80455,18.82776 0,11.04435 6.23625,18.89916 16.85215,18.89916 8.35467,0 14.23388,-4.64148 15.25739,-11.78222 l -8.33087,-1.11872 c -0.69027,2.68968 -2.71348,5.45077 -7.04553,5.45077 -5.35556,0 -8.02143,-4.7605 -8.02143,-11.44899 0,-6.45048 2.59447,-11.42519 7.99763,-11.42519 4.8557,0 6.59328,3.9036 7.11694,5.99822 z m -64.69513,-1.54716 c 0,4.14163 2.61827,8.33087 8.94973,10.37788 l 3.49897,1.02351 c 3.78459,1.23772 5.87921,2.42785 5.87921,4.49866 0,1.92801 -2.14223,3.47517 -5.40317,3.47517 -4.37965,0 -6.45047,-2.66588 -7.42637,-4.57008 l -6.92652,4.42726 c 2.97531,4.99852 8.40228,7.80721 14.75754,7.80721 8.54509,0 13.82924,-5.33175 13.82924,-11.16336 0,-4.49867 -3.11813,-8.83072 -9.85423,-10.94914 l -3.14193,-0.88069 c -3.30854,-0.9997 -5.26034,-1.85659 -5.26034,-3.95121 0,-1.85659 2.04701,-3.33235 5.14133,-3.33235 4.14163,0 5.87921,2.64208 6.47428,3.68939 l 6.66469,-4.02262 c -2.45166,-4.64149 -7.42637,-7.11694 -13.49601,-7.11694 -8.52128,0 -13.68642,4.8081 -13.68642,10.68731 z m 10.42548,-13.97206 h 7.09314 l 8.44988,-10.092247 h -9.33057 z m -21.70786,0.61887 c 2.97531,0 5.16514,-2.18983 5.16514,-4.855707 0,-2.570668 -2.18983,-4.855706 -5.16514,-4.855706 -2.9753,0 -5.23654,2.285038 -5.23654,4.855706 0,2.665877 2.26124,4.855707 5.23654,4.855707 z m 4.52248,3.14193 h -9.09255 v 36.5606 h 9.09255 z m -37.19136,13.80543 c 0,-4.40346 2.16602,-6.7599 5.8316,-6.7599 2.73729,0 5.45077,1.49956 5.45077,6.23625 v 23.27882 h 9.09255 v -23.20741 c 0,-10.02085 -4.95092,-13.82924 -11.11576,-13.82924 -4.87951,0 -8.71171,2.59447 -10.37788,5.56978 h -0.38084 c -1.54716,-3.35615 -4.66529,-5.56978 -9.11635,-5.56978 -4.54627,0 -7.78341,2.40405 -9.52099,5.18894 h -0.30943 v -4.71289 h -8.90213 v 36.5606 h 9.09255 v -22.61235 c 0,-4.64149 2.71348,-6.90272 5.8316,-6.90272 3.23714,0 5.54598,1.83279 5.54598,6.30766 v 23.20741 h 8.87833 z m -45.59366,22.75517 h 8.75931 v -23.73107 c 0,-9.28297 -6.83131,-13.30558 -14.87655,-13.30558 -6.30766,0 -13.09136,2.66587 -15.3526,9.94943 l 8.52129,1.61857 c 1.14252,-3.04672 3.11812,-4.57008 6.49807,-4.57008 3.99882,0 6.06964,2.11843 6.06964,5.87922 v 1.26153 l -2.99912,0.26183 c -10.04464,0.85688 -18.37551,4.14163 -18.37551,12.42489 0,7.09314 5.45077,10.94914 12.16307,10.94914 5.26034,0 8.16425,-2.45166 9.30677,-4.52247 h 0.28563 z m -0.38084,-16.70934 v 4.47487 c 0,3.26094 -3.14193,6.06963 -7.56919,6.06963 -2.8563,0 -4.97472,-1.64237 -4.97472,-4.23684 0,-4.40346 7.02173,-5.92682 11.09196,-6.21245 z m -24.88548,-20.1607 c -0.57126,-0.16661 -1.42815,-0.19042 -2.09462,-0.19042 -3.47516,0 -6.95032,2.8801 -7.99763,5.7364 h -0.30944 v -5.23654 h -9.09254 v 36.5606 h 9.09254 v -21.06519 c 0.0238,-3.8322 3.14193,-7.28356 7.95003,-7.28356 0.85689,0 1.8804,0.0238 2.45166,0.11901 z m -35.35859,0.49986 -0.21422,2.78489 h -0.26183 c -1.88039,-2.07082 -4.59388,-3.45136 -8.49748,-3.45136 -9.33057,0 -15.90006,7.64059 -15.90006,18.37551 0,11.02055 6.59329,18.47072 15.97147,18.47072 3.59417,0 6.21244,-1.16632 8.09284,-2.99911 h 0.30943 v 1.59477 c -0.0476,5.8316 -3.16573,8.21185 -8.47368,8.21185 -4.59388,0 -7.45018,-2.09462 -9.40198,-3.73699 l -4.42726,5.7364 c 2.09462,2.45165 7.14074,5.28415 14.09107,5.28415 9.97323,0 17.11398,-5.26035 17.11398,-14.68613 v -35.5847 z m -16.16188,17.70904 c 0,-6.45047 2.71348,-11.09196 8.09284,-11.09196 4.7843,0 7.02173,3.71319 7.73581,6.28386 0.47605,1.68997 0.54745,3.45136 0.57126,4.66528 -0.0238,1.30914 -0.14282,3.7608 -0.59506,5.45077 -0.71408,2.92771 -3.42756,5.85541 -7.68821,5.85541 -5.35555,0 -8.11664,-4.42726 -8.11664,-11.16336 z m -29.91971,19.30381 c 9.44958,0 16.49511,-6.40287 16.49511,-18.92297 0,-12.11546 -7.35496,-18.75635 -16.56652,-18.75635 -9.14015,0 -16.42371,6.90271 -16.42371,18.75635 0,12.35349 7.04553,18.92297 16.49512,18.92297 z m -0.0714,-7.40257 c -4.83191,0 -7.6644,-4.02262 -7.6644,-11.5204 0,-7.47398 3.02291,-11.35378 7.6644,-11.35378 4.76049,0 7.92622,3.61797 7.92622,11.35378 0,7.75961 -3.11812,11.5204 -7.92622,11.5204 z m -19.29192,-30.11014 c -0.57126,-0.16661 -1.42815,-0.19042 -2.09462,-0.19042 -3.47516,0 -6.95033,2.8801 -7.99763,5.7364 h -0.30944 v -5.23654 h -9.09254 v 36.5606 h 9.09254 v -21.06519 c 0.0238,-3.8322 3.14193,-7.28356 7.95003,-7.28356 0.85689,0 1.8804,0.0238 2.45166,0.11901 z m -41.76145,19.23241 c 10.30647,0 17.13778,-5.95062 17.13778,-15.18599 0,-9.04494 -5.99822,-15.923853 -17.37581,-15.923853 H 240.77084 V 144.13928 H 250.03 V 126.50165 Z M 250.03,103.17522 h 8.6879 c 5.92682,-0.0714 8.16425,3.40375 8.16425,7.83101 0,4.28445 -2.57066,7.73581 -8.44988,7.78341 H 250.03 Z M 539.74185,37.408978 c 2.97531,0 5.16514,-2.189828 5.16514,-4.855706 0,-2.570668 -2.18983,-4.855706 -5.16514,-4.855706 -2.97531,0 -5.23654,2.285038 -5.23654,4.855706 0,2.665878 2.26123,4.855706 5.23654,4.855706 z m 4.52247,3.141927 h -9.09254 v 36.560606 h 9.09254 z M 505.40679,56.92701 c 0,-5.736398 2.68968,-9.330572 6.80751,-9.330572 3.57037,0 6.21245,2.49926 6.21245,6.902719 v 22.612354 h 9.09254 V 54.118317 c 0,-10.116053 -5.71259,-14.043462 -12.11546,-14.043462 -4.66528,0 -8.21185,2.142223 -10.18746,5.18894 h -0.38084 v -4.71289 h -8.52128 v 36.560606 h 9.09254 z M 490.35172,40.550905 h -6.45047 v -7.807213 h -9.09255 v 7.807213 h -4.97471 v 6.783706 h 4.97471 v 20.017884 c 0,6.450472 5.47457,10.282671 10.66351,10.282671 1.9042,0 2.97531,-0.0238 5.21275,-0.428445 v -7.259756 c -0.69028,0.0476 -1.47576,0.07141 -2.54687,0.07141 -1.61857,0 -4.23684,-0.404642 -4.23684,-4.070224 v -18.61354 h 6.45047 z m -39.54781,37.250878 c 7.02173,0 12.13927,-3.284742 14.32909,-7.235953 l -5.784,-4.665286 c -1.9518,2.903902 -4.57007,4.451063 -8.16425,4.451063 -4.7843,0 -8.30706,-2.808692 -9.16395,-8.402274 h 24.0405 v -3.808397 c 0,-11.758424 -6.66469,-18.066081 -16.16188,-18.066081 -10.78253,0 -16.70934,8.116645 -16.70934,19.160995 0,10.473091 6.35526,18.565933 17.61383,18.565933 z m -0.90449,-30.324357 c 4.99852,0 7.61679,3.975014 7.61679,8.188052 H 442.0922 c 0.76168,-5.046125 3.35615,-8.188052 7.80722,-8.188052 z m -22.77897,-19.11339 h -9.09255 v 48.747475 h 9.09255 z m -31.6335,49.390142 c 9.44959,0 16.49512,-6.402866 16.49512,-18.92297 0,-12.115461 -7.35497,-18.756353 -16.56652,-18.756353 -9.14016,0 -16.42371,6.902719 -16.42371,18.756353 0,12.353486 7.04553,18.92297 16.49511,18.92297 z m -0.0714,-7.402571 c -4.83191,0 -7.6644,-4.022618 -7.6644,-11.520399 0,-7.473978 3.02291,-11.353782 7.6644,-11.353782 4.76049,0 7.92622,3.617977 7.92622,11.353782 0,7.759608 -3.11812,11.520399 -7.92622,11.520399 z M 374.8859,40.550905 h -6.45047 v -7.807213 h -9.09255 v 7.807213 h -4.97471 v 6.783706 h 4.97471 v 20.017884 c 0,6.450472 5.47457,10.282671 10.66351,10.282671 1.9042,0 2.97531,-0.0238 5.21275,-0.428445 v -7.259756 c -0.69028,0.0476 -1.47576,0.07141 -2.54687,0.07141 -1.61857,0 -4.23684,-0.404642 -4.23684,-4.070224 v -18.61354 h 6.45047 z m -51.65138,10.211263 c 0,4.141631 2.61828,8.330867 8.94974,10.37788 l 3.49896,1.023507 c 3.78459,1.237729 5.87921,2.427853 5.87921,4.498668 0,1.928001 -2.14222,3.475162 -5.40316,3.475162 -4.37966,0 -6.45047,-2.665877 -7.42637,-4.570076 l -6.92652,4.427261 c 2.97531,4.998521 8.40227,7.807213 14.75753,7.807213 8.54509,0 13.82924,-5.331755 13.82924,-11.163362 0,-4.498669 -3.11812,-8.83072 -9.85422,-10.94914 L 337.397,54.808589 c -3.30855,-0.999704 -5.26035,-1.856593 -5.26035,-3.951211 0,-1.856594 2.04701,-3.332347 5.14134,-3.332347 4.14163,0 5.87921,2.642075 6.47427,3.689384 l 6.66469,-4.022619 c -2.45165,-4.641483 -7.42637,-7.116941 -13.496,-7.116941 -8.52129,0 -13.68643,4.808101 -13.68643,10.687313 z m -15.31689,26.349343 h 8.75931 V 53.38044 c 0,-9.282966 -6.83131,-13.305585 -14.87655,-13.305585 -6.30766,0 -13.09136,2.665878 -15.3526,9.949436 l 8.52129,1.618569 c 1.14252,-3.046718 3.11812,-4.570076 6.49808,-4.570076 3.99881,0 6.06963,2.11842 6.06963,5.879212 v 1.261531 l -2.99911,0.261827 c -10.04465,0.85689 -18.37552,4.141632 -18.37552,12.424894 0,7.093139 5.45077,10.94914 12.16307,10.94914 5.26035,0 8.16425,-2.451655 9.30677,-4.522471 h 0.28563 z m -0.38084,-16.709339 v 4.474865 c 0,3.26094 -3.14193,6.069632 -7.56919,6.069632 -2.8563,0 -4.97472,-1.642371 -4.97472,-4.236841 0,-4.403458 7.02173,-5.926817 11.09196,-6.212447 z m -27.8251,-32.038136 h -9.21156 v 32.918827 h -0.40464 l -20.2083,-32.918827 h -9.11635 V 77.111511 H 250.03 v -32.84742 h 0.40464 l 20.23211,32.84742 h 9.04494 z" />
  </g>
</svg>
